<svg width="30" height="20" viewBox="0 0 30 20" fill="none" xmlns="http://www.w3.org/2000/svg">
  <path d="M15.383 15.725c-5.613 4.795 -9.6 5.133 -11.64 3.09 -1.881 -1.88 -0.321 -6.598 3.48 -11.257L0 0.337h4.616l7.175 7.175c-4.528 4.555 -7.168 9.405 -5.803 10.77 1.13 1.132 4.608 -0.436 8.361 -3.59z" fill="#000000"/>
  <path d="M28.55 19.663h-4.615l-7.175 -7.175c4.528 -4.554 7.168 -9.406 5.805 -10.77 -1.13 -1.131 -4.613 0.44 -8.366 3.593l-1.033 -1.033C18.78 -0.52 22.768 -0.86 24.81 1.184c1.88 1.88 0.322 6.598 -3.48 11.257l7.222 7.222z" fill="#000000"/>
</svg>